<?xml version="1.0" standalone="no"?><!DOCTYPE svg PUBLIC "-//W3C//DTD SVG 1.1//EN" "http://www.w3.org/Graphics/SVG/1.1/DTD/svg11.dtd"><svg t="1600576952409" class="icon" viewBox="0 0 1029 1024" version="1.1" xmlns="http://www.w3.org/2000/svg" p-id="10265" xmlns:xlink="http://www.w3.org/1999/xlink" width="64.3125" height="64"><defs><style type="text/css"></style></defs><path d="M560.423483 1018.905473c50.945274-5.094527 101.890547-15.283582 147.741293-35.661692 61.134328-25.472637 122.268657-66.228856 168.119403-112.079602 45.850746-45.850746 81.512438-101.890547 106.985075-163.024876 25.472637-61.134328 40.756219-127.363184 40.756219-193.592039 0-66.228856-15.283582-132.457711-40.756219-193.59204-25.472637-61.134328-66.228856-122.268657-112.079602-168.119403-45.850746-45.850746-101.890547-81.512438-163.024876-106.985075s-127.363184-40.756219-193.59204-40.756219c-66.228856 0-132.457711 10.189055-198.686567 40.756219-61.134328 25.472637-122.268657 66.228856-168.119403 112.079602-45.850746 45.850746-81.512438 101.890547-106.985074 163.024876-25.472637 61.134328-40.756219 127.363184-40.756219 193.59204 0 66.228856 10.189055 132.457711 40.756219 198.686567 25.472637 61.134328 56.039801 112.079602 101.890547 157.930348 5.094527 5.094527 10.189055 10.189055 20.378109 10.189055 5.094527 0 15.283582-5.094527 20.37811-10.189055 10.189055-10.189055 10.189055-30.567164 0-40.756219-40.756219-40.756219-71.323383-86.606965-91.701493-137.552239a453.412935 453.412935 0 0 1 0-346.42786 443.223881 443.223881 0 0 1 244.537314-244.537314c112.079602-45.850746 234.348259-45.850746 346.42786 0s198.686567 132.457711 244.537314 244.537314c45.850746 112.079602 45.850746 234.348259 0 346.42786a443.223881 443.223881 0 0 1-244.537314 244.537314c-40.756219 15.283582-86.606965 30.567164-132.457711 30.567164-30.567164 5.094527-61.134328 0-91.701493 0-15.283582 0-30.567164 10.189055-30.567164 25.472637 0 5.094527 0 15.283582 5.094528 20.378109 5.094527 5.094527 10.189055 10.189055 20.378109 10.189055 40.756219-5.094527 71.323383-5.094527 106.985075-5.094527z" fill="rgb(0,68,137)" p-id="10266"></path><path d="M331.169751 973.054726c0 15.283582 15.283582 30.567164 30.567164 30.567165s30.567164-15.283582 30.567165-30.567165-15.283582-30.567164-30.567165-30.567164-30.567164 15.283582-30.567164 30.567164z m392.278607-672.477612l45.850746 45.850747-412.656716 417.751243-45.850746-45.850746 412.656716-417.751244z m-448.318408 494.169155l25.472637-66.228856 40.756219 40.756219-66.228856 25.472637z" fill="rgb(0,68,137)" p-id="10267"></path></svg>