<?xml version="1.0" standalone="no"?><!DOCTYPE svg PUBLIC "-//W3C//DTD SVG 1.1//EN" "http://www.w3.org/Graphics/SVG/1.1/DTD/svg11.dtd"><svg t="1600577164759" class="icon" viewBox="0 0 1024 1024" version="1.1" xmlns="http://www.w3.org/2000/svg" p-id="10464" xmlns:xlink="http://www.w3.org/1999/xlink" width="64" height="64"><defs><style type="text/css"></style></defs><path d="M513.760934 1024C254.903687 1024 45.352582 814.448895 45.352582 555.591648c0-14.087469 12.326536-26.414005 26.414005-26.414004s26.414005 12.326536 26.414005 26.414004c0 228.921375 186.658967 415.580342 415.580342 415.580342s415.580342-186.658967 415.580342-415.580342c0-228.921375-186.658967-415.580342-415.580342-415.580342-14.087469 0-26.414005-12.326536-26.414005-26.414004s12.326536-26.414005 26.414005-26.414005c258.857247 0 468.408352 209.551105 468.408351 468.408351 1.760934 257.096313-209.551105 468.408352-468.408351 468.408352zM232.011549 213.97052c-8.804668 0-15.848403-3.521867-21.131204-10.565602-8.804668-12.326536-5.282801-28.174938 5.282801-36.979607 47.545209-33.457739 100.373218-58.110811 158.484029-73.959213 14.087469-3.521867 28.174938 5.282801 31.696806 19.37027 3.521867 14.087469-5.282801 28.174938-19.37027 31.696806-51.067076 12.326536-98.612285 35.218673-140.874693 65.154545-3.521867 3.521867-8.804668 5.282801-14.087469 5.282801z" p-id="10465" fill="rgb(0,68,137)"></path><path d="M159.813269 247.428259m-26.414004 0a26.414005 26.414005 0 1 0 52.828009 0 26.414005 26.414005 0 1 0-52.828009 0Z" fill="rgb(0,68,137)"  p-id="10466"></path><path d="M99.941525 337.235876m-26.414004 0a26.414005 26.414005 0 1 0 52.828009 0 26.414005 26.414005 0 1 0-52.828009 0Z" fill="rgb(0,68,137)"  p-id="10467"></path><path d="M66.483786 435.84816m-26.414005 0a26.414005 26.414005 0 1 0 52.82801 0 26.414005 26.414005 0 1 0-52.82801 0Z" fill="rgb(0,68,137)"   p-id="10468"></path><path d="M513.760934 127.684771c-7.043735 0-15.848403-3.521867-21.131204-10.565602-8.804668-10.565602-7.043735-28.174938 5.282801-36.979607 45.784275-35.218673 98.612285-61.632678 154.962161-79.242014 14.087469-3.521867 28.174938 3.521867 33.45774 17.609336 3.521867 14.087469-3.521867 28.174938-17.609337 33.45774-51.067076 14.087469-96.851351 38.74054-137.352825 70.437346-7.043735 3.521867-12.326536 5.282801-17.609336 5.282801z" fill="rgb(0,68,137)"  p-id="10469"></path><path d="M513.760934 553.830715m-54.588944 0a54.588943 54.588943 0 1 0 109.177887 0 54.588943 54.588943 0 1 0-109.177887 0Z" p-id="10470" fill="rgb(0,68,137)" ></path></svg>