<?xml version="1.0" standalone="no"?><!DOCTYPE svg PUBLIC "-//W3C//DTD SVG 1.1//EN" "http://www.w3.org/Graphics/SVG/1.1/DTD/svg11.dtd"><svg t="1600576843063" class="icon" viewBox="0 0 1024 1024" version="1.1" xmlns="http://www.w3.org/2000/svg" p-id="8054" xmlns:xlink="http://www.w3.org/1999/xlink" width="64" height="64"><defs><style type="text/css"></style></defs><path d="M908.73786 229.145887l0 0.193405c8.16189 2.342348 15.647375-6.331195 20.374026-10.991332 4.015454-7.023974 16.256242-18.703991 24.599258-18.703991 4.641717 1.586125 0.066515 13.205766 4.997827 17.161868 0.610914 0.252757 4.344958 4.78805 3.650133 5.206582-2.111081 5.617951-5.818519 42.430368-3.458775 43.961234-0.317225 3.792373-0.107447 6.127558-2.882654 8.866948-3.064802 4.609994-10.458189 1.157359-14.609743 1.157359-1.532913 2.514263-6.228865 4.260024-7.110955 6.942109-3.682879 11.193947 15.403828 29.41596 11.917424 41.454134l-0.192382 0c0 1.364067-2.391467 11.226692-2.882654 13.113669-0.458441 1.76418-0.943488 3.03001-2.691295 3.470031 0 0.732687-7.211239-1.620917-8.458649-1.735527-2.792603-3.365654-1.334391-10.754948-2.87856-10.604522-2.095731 0.264013-3.744277 3.471055-4.036943 3.471055-0.412392 3.314489-3.462868 13.690814-6.918573 15.426341-2.01489 2.523473-6.620791 2.892887-9.609869 2.892887l0 0.193405c-0.969071 0.549515-0.947582 0.417509-0.960885 1.927909 3.185552 1.927909 4.964058 5.467525 4.804423 7.902994 0.874927 4.366448-5.119601 8.213056-6.534833 7.326872-6.464225 0-11.1919-3.471055-16.911158-3.471055l0 0.193405c-2.424212 0.695848-3.01773 8.868995-4.804423 8.868995-1.554402 6.243191-7.143701 10.073426-10.571776 15.232936l-0.38374 0c-0.064468 0.128937-0.127913 0.258896-0.192382 0.38681-4.107551 1.370207-7.023974 5.063319-10.187013 7.710612 0 3.229554-2.540869 7.2798-2.882654 10.990309-10.219759 8.54563-23.100114 4.110621-30.55797 21.212114-0.205685 3.698229-4.804423 10.923794-4.804423 10.987239-3.975545 0.135076-8.011464 0.493234-11.917424 0.578168-0.305969-3.678786 2.636037-10.216689 6.92062-10.216689 0-1.792832-7.478322-11.183713-4.036943-11.183713 0.063445-0.450255 0.127913-0.901533 0.192382-1.351787l0.193405 0c0-6.147 8.215102-8.242731 5.957689-16.775059-1.236154-4.948709-6.773264-6.678096-10.955516-5.010107 0 0.200568-31.863708 38.948057-31.902594 38.948057-1.49198 2.243087-13.560854 4.459568-16.525372 5.202489-3.861958 3.321652-6.275937 11.703553-0.384763 14.655791 0.848321 3.409656 2.688225 4.980431 2.688225 8.484232 1.362021 0.722454 11.033287-4.324492 15.95232-2.313695 1.338485 3.124154 2.498914 6.274914 2.498914 9.833973l0.192382 0c0.817622 1.728364 5.929036 7.045463 7.881504 7.326872l0 0.193405c0.26913-0.01535-0.074701-0.140193 0.192382-0.193405 7.346315 0 7.372921-17.355273 21.522176-17.355273 6.063089-1.735527 11.429307 4.720511 18.453281 2.700505 4.234441-1.221828 6.897084 0.185218 9.993608 1.735527 0 1.100054 0.833995 9.0624-2.114151 9.0624-0.74292 1.118474-15.85306 7.680936-16.145725 7.517207 1.313925 2.242064-13.187347 17.043165-15.183817 15.617699-0.487094 1.639337-5.377474 8.741082-5.377474 8.871041-0.701988 0.523933-2.114151 2.584871-2.114151 3.278673l-0.193405 0c-0.689708 1.848091-2.49789 13.389962-2.49789 13.684674 0.38374 0.336668 0.159636 0.444115 0.38374 0.771573 0.192382 0.128937 0.38374 0.25685 0.576121 0.38681 0 0.992607 2.115174 1.616824 2.115174 2.12029 21.288862 2.892887 22.1423 35.308157 29.78742 39.140439 0 0.440022 0.217964 0.468674 0.384763 0.963954 5.338588 4.688789 11.967566 7.367805 18.066471 11.95631l0 0.384763c7.389294 3.706415-7.395434 4.106528-7.688099 6.556323 4.502547 2.592035 9.578146 5.120624 12.105712 12.533454l-0.192382 0c0 8.391111-18.374486 15.797801-22.485107 20.436448l-0.193405 0 0 0.577145c1.579985 0.590448 4.808516 0.38681 6.535857 0.38681 4.567016-8.604982 17.955954-2.070148 24.213471 0.384763-0.110517 0.388856 0.024559 0.168846-0.192382 0.38681-1.227967 4.621251-9.417487 7.001461-9.417487 10.797927 1.558495 0 6.010901-4.995781 7.495718-2.5071 0 1.546216 1.670036 5.453199 0.193405 6.942109-2.157129 2.568499-4.253884 0.450255-6.151094 2.12029l-0.193405 0c0 9.952676 11.367909 23.715121-5.186116 23.715121-4.939499 8.576329-6.142907 9.762341-6.534833 21.211091-4.492314 2.992147-3.755534 9.91993-7.688099 13.300934-2.208295-0.063445-6.072299-0.222057-6.728238 1.157359 0 2.588965 4.628414 4.349051 6.728238 4.820796-0.491187 4.177136-6.79066 2.388397-4.996804 8.098445 0.345877 4.865821 1.551332 7.705496 0.382717 12.340049-9.19236 0.656963-2.679016 8.381901-9.800203 11.951193-2.040473 6.151094-11.338233 5.999644-11.917424 8.100492-1.955538 2.124384-11.400654 20.825304-15.182794 20.825304-0.063445 0.128937-0.127913 0.255827-0.192382 0.384763-4.452405 1.488911-14.222933 3.167133-14.222933 8.480138-0.399089 1.411139 0.330528 2.168386 0.384763 3.664459-9.29162 5.285377-21.429055 17.723663-33.633005 13.884218-4.987594-1.566682-5.64251 9.255805-10.380418 9.255805-2.651386 2.464121-9.413394-4.591575-9.413394-6.748704-3.805676-2.547009-3.990894 2.031263-4.613064 3.27765-2.040473 8.17417-15.419178 16.771989-23.642466 16.771989-5.523807 1.697665-32.607652 4.510734-33.633005 9.642614l-0.192382 0c0 2.358721-1.648546 7.520277-4.613064 7.520277-2.540869 3.059686-0.978281 1.848091-0.192382 5.013177 1.594311-0.025583 2.847861 0.153496 4.03592 0.384763 0.817622 1.438769 0.659009 5.446036 0.38374 7.135514-3.743254 2.074242-5.199419 1.90335-9.610892 1.735527l0-0.193405c-1.827625-0.367367-5.284353-8.365528-6.91448-10.413164-6.274914-3.145643 0.028653-9.544377 0.384763-13.111622-0.332575-0.124843-0.605797-0.181125-1.154289-0.193405l0 0.193405c-3.89982 1.067308-6.828522 3.14155-10.764158 3.471055l0-0.193405c-0.675382-0.178055-9.124821-12.843516-9.417487-6.361895 2.049682 1.027399 2.602268 2.90619 0 3.27765 0 1.224898-14.681374-0.461511-15.95232-0.580215-4.922103 0-23.104207-5.013177-21.522176-12.915148l-0.192382 0c-0.753153-2.39556 1.508353-8.019651 1.537006-10.606569-0.511653-0.450255-1.025353-0.899486-1.537006-1.350764-1.648546-0.163729-19.221784-3.405563-19.221784-3.471055-2.868327-0.720408-2.171456-4.098341-3.839445-4.628414-0.890276-0.792039-4.493338 0.243547-4.996804 0.578168-1.439792 2.161223-7.236821 9.449209-10.380418 9.449209l0 0.193405c-2.819209 0.176009-5.02955-0.222057-7.30436 1.735527 0 5.116531-6.815219 3.085268-9.033747 3.085268-0.821715-0.989537-2.796696-2.146896-3.266393-3.085268-0.832971 0-7.491625 1.909489-7.491625 2.12029-4.845355 1.445932-8.208962-3.084245-12.494569-3.084245-0.737804 0.981351-4.004197 4.597715-4.804423 4.626367-1.470491 1.254573-8.621355-1.752924-9.994632-0.577145-2.010797 0.456395-1.606591 2.602268-1.538029 5.013177 2.13257 1.863441 2.635013 8.719592 2.49789 11.180644 1.971911 0 1.855254 9.852392 1.347694 11.183713-0.638543 3.207042-3.261277 2.153036-5.767354 1.735527l0-0.193405c-5.210675-1.045819-8.068769-6.601348-8.068769-11.568477-0.004093-3.467985-0.387833-1.64036-2.114151-4.242627-5.364171 0-5.215792 5.399987-8.650007 5.399987l0 0.193405c-2.51938-0.212848-2.89391-1.161453-5.190209-1.350764-0.857531-3.967358-9.993608-11.134595-9.993608-11.374048-1.447978-0.520863-5.154393 0.846274-6.151094 0-1.11745-0.308015-2.733251-2.445702-3.075035-3.471055l-0.192382 0c-0.801249-4.835122 1.010003-13.168927-0.577145-17.162892-2.431376-0.812505-4.040013-0.812505-5.763261-2.89084-3.103688-2.074242-4.205788-13.419637-7.495718-17.543561-5.380544-3.620457-8.051373 3.085268-12.301164 3.085268l0 0.192382c-5.915733-1.586125-3.471055-4.812609-4.613064-10.413164-1.860371-6.605442 1.426489-10.92277 2.882654-16.775059 0.127913-0.065492 0.255827-0.128937 0.384763-0.193405 0-3.591805 10.313903-8.184403 12.876262-10.991332 0.865717-0.213871 0.972141-0.446162 1.538029-1.157359 1.445932-0.724501 8.011464-29.68509 4.420683-33.741475 0-2.028193-7.30436-4.670369-7.30436-6.748704-0.592494-0.444115-1.209548-2.309602-1.346671-2.309602 0-5.806239-2.116197-7.863085-5.381567-11.95631-2.114151-0.532119-4.591575-1.493004-6.15007 0.38681-3.570315 1.788739 0.127913 11.161201-5.381567 11.955286-3.608178 1.170662-7.698333-5.692652-11.147898-8.098445-3.270487 0-9.94142-5.109368-13.642718-6.170536l0 0.193405c-3.299139 0.621147-8.123005 5.380544-10.380418 8.097422-9.578146 1.029446-18.007119 12.834306-26.904767 15.808034-3.634784 1.942235-28.096918 6.875594-32.80208 0-1.954515-1.920746 0.326435-9.119705 0.515746-11.757788-3.25002-2.176572-5.229095-3.140527-5.190209-7.713682-1.224898-0.692778-8.842389-2.25025-8.842389-2.313695-6.459109-1.616824-10.837836-11.184737-19.219737-11.184737 0-0.063445-12.853749 4.221138-14.412244 6.942109 0 2.496867 0.820692 6.684236-0.577145 8.871041-4.139274 2.074242-4.229325 2.184759-9.032724 0.577145-2.89084-5.801123 0.086981-9.986445 0.192382-15.617699-2.929726-1.959631-9.102309-2.003634-12.302187-0.771573-3.257184 0.654916-6.237051 4.938476-9.994632 3.855818-4.093225-1.26276-6.320962-4.835122-9.029654-8.098445-5.659907-1.134847-10.257621-0.856507-15.95232-0.963954-4.387937-4.000104-8.275477-10.55438-11.917424-15.422248-3.125177-2.003634-6.92062 0.061398-9.992585-4.049223-0.448208-0.38681-0.895393-0.771573-1.344624-1.157359-2.227738-2.993171-4.361331-10.223852-4.613064-15.040555-2.402723-1.607614-9.222035 0.007163-10.378371-2.313695-1.487887 0-4.804423-6.52153-4.804423-7.520277-2.936889-2.206248-8.187473-3.723811-10.380418-6.362918-0.12689-0.064468-0.255827-0.128937-0.38374-0.193405 0-2.332115-7.948019-11.724019-8.068769-11.757788-8.108678 1.351787-17.612123 5.799076-23.833825-2.315742-1.847068-2.020006-2.307555-6.5553-2.307555-10.219759-8.267291-6.636141-10.868535-14.84715-22.291702-14.84715-2.342348-0.672312-1.75497-0.803295-3.075035-1.928932 0.338714-3.974521-0.37453-6.152117 2.49789-8.673543l0-0.384763c4.229325-2.832512 1.538029-15.113209 1.538029-19.091824l-0.192382 0c0-5.180999-0.540306-2.774183 0.960885-5.783727 4.414543 0 7.306406 3.373841 11.143805 3.471055 0.458441-1.642406 0.960885-0.606821 0.960885-2.700505l0.192382 0c0-7.824199-2.391467-14.396895-3.650133-21.978571l-0.193405 0c-1.917676-5.884011 4.613064-9.079796 4.613064-13.690814-0.483001-2.820232-0.978281-2.914376-2.114151-3.855818-7.139607-1.431605-8.097422-10.265808-6.53074-15.808034 1.803066-6.402827-18.352997-22.457478-22.103414-19.089777-1.470491-0.103354-3.435239-2.674922-3.26844-2.892887 0-3.624551 3.409656-13.514805 1.538029-16.58063-2.905166-1.459235-12.141528-9.06547-14.223956-11.568477-0.192382-0.128937-0.38374-0.25685-0.576121-0.38681-3.65218-5.455245 0.941442-10.602476 6.343475-11.955286 2.971681-5.962805 1.538029-12.175297 1.538029-18.507516l-0.193405 0c0-6.92062-7.528464-2.406816-11.337209-2.313695-2.765997-2.0241-5.851265-3.453658-2.882654-10.027377 5.994528-1.313925 4.378727-8.868995 1.538029-8.868995-0.800225-1.645476 6.395664-5.700839 7.300266-9.641591 5.372358 0 21.887496-14.365172 31.522947-11.181667 6.700609 1.118474 1.415232 9.228175 10.374278 9.638521 12.987802-10.851139 19.723204-11.565407 36.328393-11.565407l0-0.193405c1.384533-0.464581 17.678638-2.148943 17.678638-3.085268 5.349845-2.795673 5.717212-5.337565 5.190209-8.484232 0.536212-0.431835 15.426341-18.718317 15.568581-19.089777 1.76111-7.837502 2.128477-15.892969 0.576121-23.906479l0.192382 0c0.791016-2.5071 1.150196-5.932106-0.959861-7.520277-1.755993-2.51017-0.545422-4.435009 2.49789-4.435009 12.115945-3.703345 21.738094 3.470031 33.05586 3.470031 0.064468-0.193405 0.127913-0.384763 0.192382-0.577145 2.990101-3.50994-3.28072-13.684674 8.265244-19.472494 1.701758-2.707668 7.478322-13.430894 7.877411-15.040555l0.193405 0c1.406023-2.111081 4.067642-1.356904 6.15007-1.157359 0 5.284353 24.666796 9.027607 25.755594 8.871041l0-0.193405c3.738138-0.236384 4.548596-1.060145 5.570879-4.435009 0.064468 0-0.338714-12.059664 0.38374-13.690814l0.192382 0c2.071172-8.299013 14.109346-7.481392 20.567431-9.638521l0-0.193405c3.608178-3.01773 2.196015-9.255805 9.801227-9.255805 3.590781-1.130753 9.029654 1.146103 9.029654 5.39794l0.193405 0c0.088004 2.379187 1.537006 5.570879 1.537006 6.939039-1.042749 3.042289 13.579273 14.519692 16.144702 14.077623 2.222621 0.606821 8.731872 4.345981 9.227152 5.978155 0 4.377704 0.650823 13.407358 3.843538 15.811104 1.170662 5.888104 5.92699 15.205307-0.769526 20.243043l0 0.384763c-6.04774 6.310729-7.328919 11.094686-1.538029 17.547655 3.552919 2.584871 10.336416 3.377934 14.989389 4.435009 2.843768-0.168846 49.869804 16.800641 48.047296 28.534893l0.193405 0c0.213871 4.307096 1.867534 11.540847 6.15007 13.690814 0.064468 0.25685 0.127913 0.514723 0.192382 0.771573l0.193405 0c0 0.192382-0.252757 8.287757 0.960885 8.287757l0 0.384763c0.448208 0.384763 0.89744 0.771573 1.344624 1.157359l0.38374 0.578168c5.201465 0 11.008728 2.313695 17.10661 2.313695 4.656043 1.393743 13.792121 5.013177 17.679661 5.013177 0.063445 0.128937 0.127913 0.25685 0.192382 0.38681 11.247158 0 21.965268-0.578168 33.05586-0.578168l0 0.192382c11.416004 1.433652 17.366529 13.032828 25.755594 14.270005 3.812839-4.335748 11.983939 1.695618 13.643742 4.049223l0 0.192382c8.236592 0 10.19213 4.489244 14.991436 8.096399 1.010003 1.355881 2.140757 1.553379 3.842515 1.541099 2.428306-7.30129 50.548256-17.607006 50.548256-24.678052l0.38374 0 0-0.193405c7.713682-2.223644 17.996886 4.345981 27.28953 2.5071 1.359974-4.091178 10.076496-12.340049 13.263072-15.232936 3.736091-3.39226 18.507516-14.361079 16.717753-16.387225-1.434675-5.216815-10.248412-28.031427 3.459798-27.960819l0 0.193405c0.149403 0.021489 16.914228 10.666944 16.914228 6.556323 4.729721 0 14.045901-11.504008 15.180747-15.808034 5.624091-1.121544 15.657608-1.335415 18.259876-6.556323 3.659343-2.780323 7.037277-12.533454 8.072863-12.533454 2.543939-3.063779 7.011694-4.069689 10.760065-5.0142l0-0.192382 0.576121 0c1.732457-2.167363 8.432043-7.520277 10.571776-7.520277 0-0.9967 18.782785-1.355881 21.526269-2.116197 0.025583-2.435469-0.576121-5.193279-0.576121-6.943133-2.371-7.584746-11.647271-12.254092-19.029402-16.389272-3.199878-0.090051-4.367471 3.664459-8.648984 3.664459-1.892093 2.167363-2.155083 4.199649-4.036943 6.5553-4.453429-0.185218-12.657274-3.950985-15.564487-3.084245l0 0.192382c-4.39203 0-8.019651 3.731998-14.800078 3.471055-0.953721-1.788739-2.441609-2.851954-2.498914-5.591345 2.527566-2.89698 6.855128-6.442736 5.573949-10.797927 0-9.29776 2.697435-15.255449 4.613064-24.87248 0.128937-0.064468 0.255827-0.127913 0.38374-0.192382 0.797156-1.190105 2.076288-2.435469 3.459798-2.892887 9.333576 0 19.309788 0.860601 25.944905-6.749728 0.576121-0.512676 1.153266-1.027399 1.730411-1.541099 0-5.078669 3.458775-12.610202 3.458775-18.508539l0.193405 0c0-7.641027 8.815783-20.632923 9.033747-20.632923 2.295276-5.373381-4.164856-11.147898-8.456602-13.305027 0-0.349971-0.171915-2.122337-0.384763-2.122337 0.844228-5.491061 1.289366-6.172583 4.996804-9.058306 4.193509-1.054005 8.080026-2.316765 12.108782-3.664459 2.464121-4.944616 16.829294-9.254781 22.292726-9.254781 3.833305-0.853437 8.207939 3.084245 11.917424 3.084245l0 0.193405c7.024997-0.332575 10.916631-0.926092 17.102516 1.735527l0 0.193405c0.255827 0.064468 0.511653 0.127913 0.769526 0.192382l0 0.193405 0.38374 0c0.202615 0.182149 21.526269 22.439058 21.526269 26.606984l0.192382 0c0.128937 0.38681 0.25685 0.771573 0.384763 1.157359 0.320295 0.25685 0.639566 0.514723 0.960885 0.771573l0 0.384763c3.160993 2.885723 6.65149 6.343475 9.803273 8.871041l0 0.577145 0.192382 0c0 5.161556 2.750647 7.904017 6.343475 10.607592 0 0.50449 0.153496 0.48914 0.576121 0.77055 0.352017 1.421372 1.566682 8.094352 3.455705 8.094352 0.065492 0.127913 0.127913 0.25685 0.192382 0.384763 4.253884 0 12.233626-0.931209 15.570627 0.38681 0 1.913583 8.303106 0.053212 10.764158 0.77055 0 0.390903 3.372817 1.74883 3.843538 2.315742 0.404206 3.794419 8.110725 5.934153 12.490475 6.940063C897.206222 216.377072 903.576303 229.145887 908.73786 229.145887L908.73786 229.145887 908.73786 229.145887zM838.589197 772.488733c0.533143-5.360078 1.220804-10.095939 1.538029-15.808034l0.192382 0c0-6.853082 3.459798-8.217149 3.459798-14.077623l0.192382 0c0-6.145977 6.115278-17.374716 11.143805-21.785166 0.7552-1.062192 7.54586-2.263553 9.226129-1.735527l0 0.192382c12.277628 1.757017 4.422729 8.960069 4.422729 14.265912l-0.193405 0c0 7.584746 3.010567 18.549471 0.960885 25.453718 0 3.01773-2.8847 5.487991-2.8847 7.709589-1.678222 2.553149-7.494695 3.306302-7.494695 7.519254l-0.192382 0c-2.758834 7.357572 0.696872 12.134365-5.573949 19.476587l-0.193405 0 0-0.193405-0.192382 0c0-2.25639-4.79112-4.727675-5.186116-7.906064l-0.192382 0C843.216587 780.297582 840.400448 778.851651 838.589197 772.488733L838.589197 772.488733 838.589197 772.488733zM634.483612 851.733565c7.321756-0.699941 23.325241-7.516184 31.325449-4.242627 2.057869 0.415462 5.78782 2.02103 6.343475 4.242627 1.837858 2.598174-3.128247 8.645914-7.495718 21.789259-0.127913 0.064468-0.255827 0.127913-0.38374 0.192382l0 0.38681c-3.505847 7.04137-20.069081 13.564947-20.564361 11.955286l-0.77055 0 0 0.192382c-2.979868 0.890276-14.990413-3.550873-14.990413-6.361895-0.12689-0.063445-0.255827-0.127913-0.38374-0.193405C622.687962 860.147188 633.668037 865.520569 634.483612 851.733565L634.483612 851.733565 634.483612 851.733565zM634.483612 851.733565" fill="rgb(0,68,137)" p-id="8055"></path></svg>