<?xml version="1.0" standalone="no"?><!DOCTYPE svg PUBLIC "-//W3C//DTD SVG 1.1//EN" "http://www.w3.org/Graphics/SVG/1.1/DTD/svg11.dtd"><svg t="1600578553868" class="icon" viewBox="0 0 1057 1024" version="1.1" xmlns="http://www.w3.org/2000/svg" p-id="13309" xmlns:xlink="http://www.w3.org/1999/xlink" width="66.0625" height="64"><defs><style type="text/css"></style></defs><path d="M531.968 1.024C248.32 1.024 20.48 228.864 20.48 512.512S248.32 1024 531.968 1024s511.488-227.84 511.488-511.488S815.104 1.024 531.968 1.024z m255.488 123.392V140.8c0 48.64-4.608 95.232-13.824 141.824-32.768 7.168-55.808 34.816-55.808 67.584 0 18.432 7.168 37.376 20.992 48.64-16.384 37.376-32.768 74.24-55.808 109.568-86.016-97.792-146.432-221.184-167.424-357.888 53.76-32.768 111.616-58.368 172.032-74.24 34.816 10.752 70.144 27.136 99.84 48.128z m-97.28 457.728c41.984 39.424 86.016 74.24 135.168 102.4-48.64 9.216-99.84 13.824-153.6 13.824-23.04 0-46.592-2.56-69.632-2.56 0-4.608 0-9.216-2.56-13.824 32.256-29.696 62.464-64.512 90.624-99.84zM531.968 47.616c25.6 0 51.2 2.56 76.8 7.168-32.768 13.824-65.024 28.16-97.792 44.032-2.56-16.384-2.56-32.768-2.56-48.64 7.168-2.56 16.384-2.56 23.552-2.56z m125.44 499.712c-25.6 34.816-53.76 65.024-83.968 95.232-11.776-9.216-25.6-13.824-41.984-13.824-30.208 0-55.808 18.432-65.024 46.592-93.184-23.04-181.76-58.368-260.096-107.008 20.992-79.36 55.808-153.6 99.84-218.624 4.608 0 9.216 2.56 16.384 2.56 39.424 0 69.632-30.208 69.632-69.632 0-9.216-2.56-18.432-4.608-28.16 28.16-28.16 55.808-51.2 86.016-74.24 25.6 139.264 90.624 264.704 183.808 367.104zM136.704 756.736C94.72 687.104 69.12 607.744 67.072 521.728c28.16 23.04 55.808 46.592 86.016 65.024-9.216 51.2-16.384 104.96-16.384 158.208v11.776z m30.208-216.064c-34.816-23.04-65.024-48.64-95.232-76.8C94.72 254.464 258.048 87.552 464.384 54.784c0 25.6 2.56 48.64 4.608 74.24-39.424 28.16-76.8 58.368-111.616 90.624-11.776-7.168-23.04-9.216-34.816-9.216-39.424 0-69.632 30.208-69.632 69.632 0 16.384 7.168 30.208 16.384 44.032-46.592 65.024-81.408 137.216-102.4 216.576z m20.992 283.136c-2.56-25.6-4.608-51.2-4.608-79.36 0-44.032 4.608-88.576 13.824-130.56 83.968 48.64 174.592 86.016 269.312 107.008 0 2.56 0 2.56 2.56 4.608-81.408 53.76-174.592 88.576-273.92 104.96-4.608-2.048-4.608-4.096-7.168-6.656z m344.064 153.6c-114.176 0-216.576-41.984-297.472-109.568 97.792-18.432 186.368-55.808 264.704-109.568 9.216 7.168 20.992 9.216 32.768 9.216 23.04 0 41.984-11.776 55.808-28.16 28.16 2.56 55.808 4.608 83.968 4.608 74.24 0 146.432-9.216 216.576-25.6 16.384 7.168 32.768 16.384 48.64 20.992-79.872 142.848-230.4 238.08-404.992 238.08zM891.904 670.72c-65.024-32.768-125.44-76.8-176.64-128 25.6-39.424 46.592-81.408 65.024-123.392h7.168c39.424 0 69.632-30.208 69.632-69.632 0-28.16-16.384-51.2-39.424-62.976 9.216-41.984 13.824-83.968 13.824-128 99.84 86.016 162.816 211.968 162.816 353.28 0 46.592-7.168 88.576-18.432 130.56-25.6 11.776-53.76 21.504-83.968 28.16z" fill="rgb(0,68,137)" p-id="13310"></path><path d="M781.824 431.616c-44.032 0-79.872-35.84-79.872-79.872s35.84-79.872 79.872-79.872 79.872 35.84 79.872 79.872-35.84 79.872-79.872 79.872z m0-134.656c-30.208 0-54.784 24.576-54.784 54.784s24.576 54.784 54.784 54.784 54.784-24.576 54.784-54.784-24.576-54.784-54.784-54.784z" fill="rgb(0,68,137)" p-id="13311"></path><path d="M824.832 351.744c0 23.552-19.456 43.008-43.008 43.008s-43.008-19.456-43.008-43.008c0-23.552 19.456-43.008 43.008-43.008s43.008 18.944 43.008 43.008zM531.968 778.24c-44.032 0-79.872-35.84-79.872-79.872s35.84-79.872 79.872-79.872 79.872 35.84 79.872 79.872S576 778.24 531.968 778.24z m0-134.144c-30.208 0-54.784 24.576-54.784 54.784s24.576 54.784 54.784 54.784 54.784-24.576 54.784-54.784-24.576-54.784-54.784-54.784z" fill="rgb(0,68,137)" p-id="13312"></path><path d="M574.976 698.88c0 23.552-19.456 43.008-43.008 43.008-23.552 0-43.008-19.456-43.008-43.008 0-23.552 19.456-43.008 43.008-43.008 23.552 0 43.008 18.944 43.008 43.008zM324.096 361.984c-44.032 0-79.872-35.84-79.872-79.872s35.84-79.872 79.872-79.872 79.872 35.84 79.872 79.872-35.84 79.872-79.872 79.872z m0-134.144c-30.208 0-54.784 24.576-54.784 54.784s24.576 54.784 54.784 54.784 54.784-25.6 54.784-55.296-24.576-54.272-54.784-54.272z" fill="rgb(0,68,137)" p-id="13313"></path><path d="M367.104 282.112c0 23.552-19.456 43.008-43.008 43.008s-43.008-19.456-43.008-43.008 19.456-43.008 43.008-43.008 43.008 18.944 43.008 43.008z" fill="rgb(0,68,137)"  p-id="13314"></path></svg>