<?xml version="1.0" standalone="no"?><!DOCTYPE svg PUBLIC "-//W3C//DTD SVG 1.1//EN" "http://www.w3.org/Graphics/SVG/1.1/DTD/svg11.dtd"><svg t="1600577282701" class="icon" viewBox="0 0 1024 1024" version="1.1" xmlns="http://www.w3.org/2000/svg" p-id="11543" xmlns:xlink="http://www.w3.org/1999/xlink" width="64" height="64"><defs><style type="text/css"></style></defs><path d="M512.12 119.55c109.11 0 207.88 44.43 279.25 116.02 71.59 71.59 115.8 170.36 115.8 279.47 0 15.52-0.86 30.19-2.36 44.85 0 218.68-200.55 379.11-407.57 338.14-21.99-4.53-43.57-10.8-64.26-19.63-21.13-8.63-40.98-19.41-59.95-31.71-13.8-9.47-26.74-19.61-38.82-30.39l-70.73 70.93c-7.33 6.69-18.77 6.69-25.88 0-3.67-3.67-5.17-8.39-5.17-13.14V621.35c0-10.14 8.19-17.89 18.11-17.89h252.53c9.91 0 18.33 7.75 18.33 17.89 0 5.19-2.16 9.72-5.19 13.16l-0.42 0.22-69.45 69.01c51.54 39.46 131.54 62.76 204.02 52.4 125.49-18.11 189.11-100.92 195.8-222.76H730.78c-1.28 45.51-6.69 89.06-16.38 128.96-7.55 33.85-44.21 26.3-37.74 0.64 10.36-39.24 16.38-83.45 17.69-129.6h-163.9v17.05c0 10.34-8.19 18.33-18.33 18.33-10.14 0-18.33-7.99-18.33-18.33v-17.05H329.46v17.05c0 10.34-8.19 18.33-18.11 18.33-10.14 0-18.11-7.99-18.11-18.33v-17.05H178.09c1.28 23.08 4.75 45.71 10.78 67.51 13.8 52.18-43.35 73.75-54.76 29.55-9.94-36.68-17.27-75.28-17.27-115.38 0-109.11 44.21-207.88 115.82-279.47 71.36-71.61 170.13-116.04 279.46-116.04z m-52.84 520.13H268.64v190.64l52.2-52.18c6.89-7.33 18.55-7.33 25.66 0 14.44 14.02 30.41 27.16 46.57 38.18 16.83 10.78 34.71 20.69 53.48 28.24 18.33 7.75 37.74 13.58 58.01 17.69C638.27 888.77 778 821.49 839.9 698.14c-46.59 39.9-111.49 82.81-183.97 93.58-90.34 13.8-189.97-14.88-249.29-74.17-6.89-6.69-6.89-18.55 0-25.88l52.64-51.99z m289.41-361.2c-2.8-2.36-5.61-5.17-8.63-7.97a295.316 295.316 0 0 1-46.37 29.55c21.57 56.49 35.15 124.21 37.1 196.66h115.38c-4.76-84.75-41-161.73-97.48-218.24z m-37.1-31.91c-21.13-15.52-43.77-28.9-68.37-39.26 9.72 12.74 18.33 26.1 26.52 40.98 3.47 5.83 6.91 12.3 9.72 18.33 11-6.03 21.77-12.72 32.13-20.05z m-144.48-61.45c-11.86-1.74-24.16-3.47-36.66-4.11v128.1c36.21-1.94 70.51-9.27 102.64-21.13 4.53-1.52 9.05-3.44 13.38-5.39-2.58-5.61-5.61-11.22-8.63-16.41-19.83-36.66-43.99-64.46-70.73-81.06z m-73.32-4.11c-12.52 0.64-24.6 2.36-36.88 4.11-26.74 16.61-50.68 44.41-70.53 81.06-3.22 5.19-6.03 10.8-8.83 16.41 4.53 1.94 8.83 3.86 13.58 5.39 32.35 11.86 66.86 19.19 102.66 21.13v-128.1z m-112.99 26.3c-24.16 10.36-47.01 23.74-68.15 39.26a309.917 309.917 0 0 0 32.33 20.05c2.8-6.03 6.05-12.5 9.5-18.33 7.97-14.88 16.82-28.24 26.32-40.98z m-97.05 63.2c-2.58 2.8-5.17 5.61-8.19 7.97-56.51 56.51-92.94 133.49-97.47 218.24h115.58c1.72-72.45 15.1-140.18 36.66-196.66-15.95-8.42-31.48-18.33-46.58-29.55zM661.13 316c-5.19 2.38-10.36 4.11-15.52 5.83-36.24 13.58-75.06 21.99-115.16 23.72v151.17h163.89c-1.72-67.07-13.8-128.96-33.21-180.72z m-167.34 29.54c-40.12-1.72-79.14-10.14-115.38-23.72-5.17-1.72-10.14-3.44-15.11-5.83-19.61 51.76-31.69 113.66-33.41 180.72h163.89V345.54h0.01z" fill="rgb(0,68,137)" p-id="11544"></path></svg>