<?xml version="1.0" standalone="no"?><!DOCTYPE svg PUBLIC "-//W3C//DTD SVG 1.1//EN" "http://www.w3.org/Graphics/SVG/1.1/DTD/svg11.dtd"><svg t="1600566024436" class="icon" viewBox="0 0 1024 1024" version="1.1" xmlns="http://www.w3.org/2000/svg" p-id="6387" xmlns:xlink="http://www.w3.org/1999/xlink" width="64" height="64"><defs><style type="text/css"></style></defs><path d="M510.9 112.8c-220.9 0-400.1 179.1-400.1 400.1 0 220.9 179.1 400.1 400.1 400.1C731.8 913 911 733.9 911 512.9c0-221-179.1-400.1-400.1-400.1z m34.2 28.3s25.1-14.5 33.8-5.8c8.7 8.7 39.2-1.5 117.7 45.1 0 0-17.3 18.4-21.1 17.3 2.2 4 9 16.2 13.8 23.8 5.8 9.1 7.3 9.8 7.3 9.8l-5.8 8.7 5.8 1.5c-5.8-1.5-8.7 16-17.1 18.9s2.6 18.9-0.3 21.8c-2.9 2.9 1.5 29.1 0 44.5-1.5 15.4-7.3 2-14.5 0-7.3-2-18.9-6.7-19.9-11.1-1-4.4-3.4-17.4-0.5-24.7 2.9-7.3-8.7-14.5-14.5-19.9-5.8-5.3-29.1 1-33.4 0-4.4-1-7.3-13.6-7.3-25.2s20.3 1.5 31.8 0 13.3-30.4 13.3-30.4l-0.7-24.6c-4.7-1.9-5.5-4.3 2.1-7.4 0 0-24.7-5.8-30.5 7.3-5.8 13.1-8.7 11.8-10.2 24.8-1.4 13-24.2 1.5-29.6 0-5.3-1.5-19.9-19-19.9-19 4.4-10.2 7.3-17.4 7.3-17.4l-7.6-17.4v-20.6zM315.8 276.3c2.5-3.3 18.9-32 39.2-23.3 20.3 8.7 33.4-10.2 33.4-10.2s29.9-30.5 31.7-26.2c0.7 1.6 1.3 3.2 1.8 4.4-1.8-4.4 24.7-11.6 27.6 2.9 2.9 14.5 20.3 21.8 20.3 21.8s-10.2 17.4-7.3 30.5c2.9 13.1 13.1 16 7.3 27.6-5.8 11.6-17.4 16-20.3 21.8-2.9 5.8-26.8-18.9-29.4-27.6-2.6-8.7-15.4-17.4-26.4-14.5-11.1 2.9-40.1 10.2-45.9 7.3-5.8-2.9-38.8-5.4-32-14.5z m389.5 427.3c-11.6 30.5-39.2 82.8-53.8 97.4-14.5 14.5-32 42.1-45.1 52.3-13.1 10.2-13.1 29.1-29.1 27.6s-34.9-46.5-30.5-58.1c4.4-11.6-79.9-32-79.9-32s-36.3-4.4-43.6-74.1c-1.3-12.4-2.1-21.2-2.6-27.3-10.9-4.8-53.8-22.6-80.2-16.3-30.5 7.3-37.8-9.7-64-13.6l-45.1-41.7S157.3 532 166 517.5c8.7-14.5 8.7-53.8 10.2-62.5 1.5-8.7-11.6-63.9-10.9-71.2 0.7-7.3-10.9-34.9-10.9-34.9s27.6-58.1 32-58.1c4.4 0 20.3 49.4 36.3 50.9 16 1.5 59.6-1.5 66.1-8.7 6.5-7.3 12.4-16 19.6-16 7.3 0 7.3-4.4 20.3 1.5 13.1 5.8 27.6 14.5 33.4 23.3 5.8 8.7-4.4 26.2 26.2 26.2 30.5 0 30.5-7.3 34.9 13.1 4.4 20.4 9.5 65.4-3.2 68.3-12.8 2.9-50.5 47.2-47.6 61.4 2.9 14.2 2.9 36-2.9 49.1-5.8 13.1-10.2 17.4-32 16-21.8-1.5-40.2-13.1-46.3 4.4-6 17.4-17.6 56.7 2.7 52.8 0 0 32-9.7 43.6 0 11.6 9.7 85.8 41.7 85.8 41.7s66.9-72.7 171.5-26.2l17.4 11.6 29.1-6.3s37.8-11.1 50.9-8.2l13.1 2.9v-5.8c0-0.3 11.7 30.3 0 60.8z m170.1-165.7s-8.7-13.1-8.7-26.8c0-13.8-10.2-12.4-10.2-29.8s-13.1-11.6-21.8-23.3c-8.7-11.6-13.1 4.4-20.3 5.8-7.3 1.5-5.8 13.1-13.1 26.9-7.3 13.8-26.2 22.5-32 19.9-5.8-2.6-27.6-22.1-29.1-26.5-1.5-4.4-30.5-29.1-29.7-34.9 0.8-5.8-8.1-36.3-13.9-50.9-5.8-14.5 0-71.8 0-71.8-8.7-4.9 79.9-41.6 68.3-45.9-11.6-4.4-17.4-52.3-17.4-52.3l42.3 21.8c42.3 21.8 95.8 194.8 95.8 194.8v49.4l-10.2 43.6z m0 0" fill="rgb(0,221,221)" p-id="6388"></path></svg>