<?xml version="1.0" standalone="no"?><!DOCTYPE svg PUBLIC "-//W3C//DTD SVG 1.1//EN" "http://www.w3.org/Graphics/SVG/1.1/DTD/svg11.dtd"><svg t="1600578708391" class="icon" viewBox="0 0 1024 1024" version="1.1" xmlns="http://www.w3.org/2000/svg" p-id="15312" xmlns:xlink="http://www.w3.org/1999/xlink" width="64" height="64"><defs><style type="text/css"></style></defs><path d="M511.989 570.722c-117.045 0-212.266-98.655-212.266-219.909 0-58.689 22.028-113.876 62.031-155.384 40.116-41.648 93.468-64.526 150.236-64.526 117.067 0 212.312 98.655 212.312 219.909s-95.246 219.91-212.313 219.91z m0-382.483c-41.687 0-80.893 16.855-110.392 47.484-29.592 30.722-45.902 71.576-45.879 115.091 0 89.645 70.095 162.574 156.272 162.574 86.2 0 156.318-72.929 156.318-162.574S598.189 188.24 511.989 188.24z" fill="rgb(0,68,137)" p-id="15313"></path><path d="M511.989 578.523c-121.346 0-220.068-102.15-220.068-227.711 0-60.724 22.805-117.83 64.214-160.798 41.564-43.149 96.914-66.913 155.854-66.913 121.37 0 220.113 102.15 220.113 227.711s-98.743 227.711-220.113 227.711z m0-439.818c-54.661 0-106.021 22.067-144.616 62.136-38.594 40.045-59.847 93.306-59.847 149.971 0 116.956 91.722 212.107 204.464 212.107 112.767 0 204.51-95.15 204.51-212.107s-91.744-212.107-204.511-212.107z m0 382.483c-90.47 0-164.074-76.43-164.074-170.376-0.023-45.506 17.045-88.302 48.062-120.504 30.976-32.161 72.176-49.873 116.012-49.873 90.496 0 164.121 76.43 164.121 170.376s-73.624 170.376-164.121 170.376z m0-325.148c-39.556 0-76.766 16.014-104.773 45.094-28.2 29.275-43.718 68.225-43.697 109.675 0 85.345 66.603 154.776 148.47 154.776 81.893 0 148.517-69.43 148.517-154.772S593.882 196.04 511.989 196.04z" fill="rgb(0,68,137)" p-id="15314"></path><path d="M592.95 953.204H431.074c-155.771 0-278.831 0-278.831-87.263v-16.715c0-158.559 133.675-297.601 286.051-297.601h147.41c152.376 0 286.051 139.042 286.051 297.601v16.715c0.001 87.263-129.208 87.263-278.805 87.263zM438.294 608.961c-122.558 0-230.057 112.288-230.057 240.265v16.715c0 29.929 134.107 29.929 222.836 29.929h161.876c66.678 0 222.814 0 222.814-29.929v-16.715c0-127.977-107.5-240.265-230.057-240.265H438.295z" fill="rgb(0,68,137)" p-id="15315"></path><path d="M592.949 961.006H431.073c-79.645 0-148.43 0-199.485-11.086-28.007-6.081-48.56-15.131-62.832-27.669-16.134-14.172-24.315-33.117-24.315-56.311v-16.715c0-162.691 137.314-305.402 293.853-305.402h147.41c156.539 0 293.853 142.711 293.853 305.402v16.715c0 43.636-29.267 71.108-89.474 83.986-51.807 11.08-122.397 11.08-197.133 11.08z m-154.654-401.58c-148.226 0-278.25 135.419-278.25 289.798v16.715c0 36.293 23.086 57.491 74.855 68.731 49.419 10.73 117.426 10.73 196.175 10.73h161.876c73.886 0 143.676 0 193.872-10.735 25.932-5.547 44.694-13.471 57.359-24.225 13.306-11.299 19.774-25.857 19.774-44.502v-16.715c0-154.379-130.024-289.798-278.25-289.798H438.295z m154.654 344.246H431.073c-44.731 0-100.4 0-145.343-3.769-25.097-2.103-43.874-5.111-57.404-9.19-6.898-2.08-27.891-8.409-27.891-24.772v-16.715c0-132.148 111.15-248.067 237.86-248.067h147.411c126.71 0 237.86 115.919 237.86 248.067v16.715c0 18.627-27.99 28.784-93.591 33.965-47.676 3.766-103.607 3.766-137.025 3.766z m-154.654-286.91c-118.397 0-222.256 108.627-222.256 232.464v16.715c0 0.508 0.807 12.528 70.995 18.413 44.293 3.714 99.6 3.714 144.039 3.714h161.876c33.188 0 88.734 0 135.797-3.717 77.06-6.086 79.215-18.288 79.215-18.41v-16.715c0-123.835-103.857-232.464-222.256-232.464H438.294z" fill="rgb(0,68,137)" p-id="15316"></path></svg>