<?xml version="1.0" standalone="no"?><!DOCTYPE svg PUBLIC "-//W3C//DTD SVG 1.1//EN" "http://www.w3.org/Graphics/SVG/1.1/DTD/svg11.dtd"><svg t="1600579705106" class="icon" viewBox="0 0 1024 1024" version="1.1" xmlns="http://www.w3.org/2000/svg" p-id="21798" xmlns:xlink="http://www.w3.org/1999/xlink" width="64" height="64"><defs><style type="text/css"></style></defs><path d="M512 512m-512 0a512 512 0 1 0 1024 0 512 512 0 1 0-1024 0Z" fill="rgb(0,68,137)" p-id="21799"></path><path d="M753.92 464.64a85.333333 85.333333 0 0 1 85.333333 85.333333v213.333334a85.333333 85.333333 0 0 1-85.333333 85.333333h-341.333333a85.333333 85.333333 0 0 1-85.333334-85.333333v-213.333334a85.333333 85.333333 0 0 1 85.333334-85.333333h341.333333z m-21.333333 64h-298.666667a42.666667 42.666667 0 0 0-42.666667 42.666667v170.666666a42.666667 42.666667 0 0 0 42.666667 42.666667h298.666667a42.666667 42.666667 0 0 0 42.666666-42.666667v-170.666666a42.666667 42.666667 0 0 0-42.666666-42.666667zM213.333333 507.946667s4.437333-85.674667 48.896-155.904c44.672-70.357333 128.853333-106.154667 199.125334-103.509334 70.4 2.56 103.552 19.925333 103.552 19.925334l29.781333-50.986667s6.570667-9.813333 12.714667 0.810667l91.818666 159.061333s8.192 14.208-5.504 15.317333c-11.434667 0.938667-141.141333 1.749333-181.973333 2.048-21.205333 2.133333-9.941333-12.501333-9.941333-12.501333l28.757333-49.322667s-42.24-16.512-87.381333-12.117333c-49.834667 2.176-87.04 20.48-121.429334 62.506667-22.442667 27.349333-40.192 74.581333-40.832 129.536L213.333333 507.946667H213.333333z" fill="rgb(0,221,221)" p-id="21800"></path></svg>