<?xml version="1.0" standalone="no"?><!DOCTYPE svg PUBLIC "-//W3C//DTD SVG 1.1//EN" "http://www.w3.org/Graphics/SVG/1.1/DTD/svg11.dtd"><svg t="1600580315626" class="icon" viewBox="0 0 1024 1024" version="1.1" xmlns="http://www.w3.org/2000/svg" p-id="22094" xmlns:xlink="http://www.w3.org/1999/xlink" width="64" height="64"><defs><style type="text/css"></style></defs><path d="M682.709333 401.749333C833.365333 434.688 938.666667 509.866667 938.666667 597.333333c0 103.210667-146.56 189.269333-341.290667 209.066667L597.333333 938.666667l-170.666666-170.666667 170.666666-170.666667v123.946667c147.2-14.208 256-64.298667 256-123.946667 0-47.36-68.608-88.746667-170.624-110.848zM341.333333 401.749333v84.693334c-102.016 22.186667-170.666667 63.530667-170.666666 110.890666s68.650667 88.746667 170.666666 110.890667v84.693333C190.634667 759.978667 85.333333 684.8 85.333333 597.333333s105.301333-162.645333 256-195.584zM426.666667 213.333333l170.666666 42.666667v298.666667l-170.666666-42.666667V213.333333z" p-id="22095" fill="rgb(0,221,221)"></path></svg>