<?xml version="1.0" standalone="no"?><!DOCTYPE svg PUBLIC "-//W3C//DTD SVG 1.1//EN" "http://www.w3.org/Graphics/SVG/1.1/DTD/svg11.dtd"><svg t="1600578806856" class="icon" viewBox="0 0 1024 1024" version="1.1" xmlns="http://www.w3.org/2000/svg" p-id="16743" xmlns:xlink="http://www.w3.org/1999/xlink" width="64" height="64"><defs><style type="text/css"></style></defs><path d="M508.192 0C227.936 0 0 227.936 0 508.192s227.936 508.224 508.192 508.224 508.224-227.968 508.224-508.224S788.32 0 508.16 0z m0 924.192c-229.344 0-416-186.656-416-416s186.656-416 416-416 416 186.656 416 416-186.656 416-416 416z m86.176-254.912c-25.056-6.208-68.704 76.192-85.92 70.528-3.68-1.344-3.296-0.864-6.112-3.04 11.84-128.224 64.16-242.496 88.96-368h-6.08c-51.36 18.08-128.096 10.88-177.984 30.656v15.264c74.208-1.44 54.88 43.776 39.872 98.144-18.592 67.232-52.448 151.328-58.304 211.712-5.888 60.256 31.392 82.976 67.456 82.752 50.976-0.256 93.984-50.24 116.608-79.68 5.76-7.616 46.56-52.096 21.504-58.336z m-28.96-490.464a62.72 62.72 0 0 0-62.72 62.816 62.688 62.688 0 1 0 125.44 0 62.784 62.784 0 0 0-62.72-62.816z" fill="rgb(0,68,137)" p-id="16744"></path></svg>