<?xml version="1.0" standalone="no"?><!DOCTYPE svg PUBLIC "-//W3C//DTD SVG 1.1//EN" "http://www.w3.org/Graphics/SVG/1.1/DTD/svg11.dtd"><svg t="1600578853318" class="icon" viewBox="0 0 1024 1024" version="1.1" xmlns="http://www.w3.org/2000/svg" p-id="17518" xmlns:xlink="http://www.w3.org/1999/xlink" width="64" height="64"><defs><style type="text/css"></style></defs><path d="M226.5 705.1L3.6 309c-2.1-4.1-2.1-9 0-13.1 2.1-2.2 4.2-4.4 6.3-5.4 33.8-16.3 93-22.8 134.1 46.6l151 269.1-62.3 109.6c-1.7-1.5-3.2-3.4-4.2-5.4 1.1 1.1 3.2 2.2 4.2 3.3-1.9-2.2-4.1-5.4-6.2-8.6z m402.5-434l-63.4 111.7L386 697.5c-22.2 33.6-46.4 48.8-82.4 48.8-21.4 0.3-42.2-6.5-59.2-19.5l60.2-105.3c68.7-120.4 183.8-323.4 183.8-323.4 10-16.8 28-27.1 47.5-27.1H629z m208.2 106.3H586.8L647 271.1h190.2c79.2 0 144.7 66.1 144.7 148.7 0 79.1-60.2 144.3-136.3 148.6L672.4 462h164.8c22.2 0 41.2-18.5 41.2-42.3 0.2-23-18.2-41.9-41.2-42.3zM1015.7 691c3.2 2.2 5.3 6.5 6.3 10.8 0 3.3-1.1 5.5-2.1 7.6-22.2 30.4-70.8 65.2-139.4 26.1l-280-170.4c-25.4-15.3-33.8-48.1-19-73.7l1.1-2.2c9.5-16 26.8-25.9 45.4-26.1h14.8l174.3 106.3L1015.7 691z m0 0" fill="rgb(0,68,137)" p-id="17519"></path></svg>